PathFileType	4	(X/Y/Z)	c:/Users/goper/Files/vsCode/490R/osim_files/C06/C06_Static_01.trc
DataRate	CameraRate	NumFrames	NumMarkers	Units                	OrigDataRate	OrigDataStartFrame	OrigNumFrames
250.00	250.00	10	36	mm	250.0	429	1714
                Frame#	Time	LPSIS			LASIS			LTH1			LTH2			LTH3			LTH4			LLFE			LMFE			LSH1			LSH2			LSH3			LSH4			LLMAL			LMMAL			LCAL			LMTP5			LTOE			LMTP1			RPSIS			RASIS			RTH1			RTH2			RTH3			RTH4			RLFE			RMFE			RSH1			RSH2			RSH3			RSH4			RLMAL			RMMAL			RCAL			RMTP1			RTOE			RMTP5		
		X1	Y1	Z1	X2	Y2	Z2	X3	Y3	Z3	X4	Y4	Z4	X5	Y5	Z5	X6	Y6	Z6	X7	Y7	Z7	X8	Y8	Z8	X9	Y9	Z9	X10	Y10	Z10	X11	Y11	Z11	X12	Y12	Z12	X13	Y13	Z13	X14	Y14	Z14	X15	Y15	Z15	X16	Y16	Z16	X17	Y17	Z17	X18	Y18	Z18	X19	Y19	Z19	X20	Y20	Z20	X21	Y21	Z21	X22	Y22	Z22	X23	Y23	Z23	X24	Y24	Z24	X25	Y25	Z25	X26	Y26	Z26	X27	Y27	Z27	X28	Y28	Z28	X29	Y29	Z29	X30	Y30	Z30	X31	Y31	Z31	X32	Y32	Z32	X33	Y33	Z33	X34	Y34	Z34	X35	Y35	Z35	X36	Y36	Z36

429	1.71200	-393.32288	1014.33386	485.10748	-225.20143	970.82623	371.47125	-325.08963	801.63336	293.14438	-316.85141	739.96747	282.87735	-250.66452	802.63336	304.85626	-251.62918	742.30963	293.52924	-326.52945	481.58862	296.01974	-334.09937	447.82022	407.00128	-399.97049	377.63806	264.22580	-392.31534	335.17191	259.75436	-335.34299	383.23303	262.13373	-338.41705	339.41479	257.69431	-358.23904	92.84541	269.55576	-346.77905	98.06502	347.77020	-421.99017	66.58845	312.59128	-247.53944	30.69628	238.05139	-195.65004	55.73328	306.00006	-220.97070	36.00871	352.04959	-389.70245	1012.35724	557.79364	-200.36612	969.37982	612.26080	-291.57935	791.47906	708.24670	-284.74286	728.57336	709.21088	-219.38680	792.70105	686.02881	-222.43622	730.03467	691.40289	-304.68820	462.86517	688.76959	-299.45630	463.19144	578.75330	-363.67886	393.04715	716.88837	-360.44199	345.65683	722.91888	-303.75232	386.57080	709.61346	-309.73779	340.70764	715.82544	-336.69073	91.75383	697.79169	-317.27249	105.68907	619.18567	-400.43375	62.49701	656.64404	-198.10449	44.84609	622.43323	-176.07814	53.25068	661.36987	-219.46922	29.11501	728.71655
430	1.71600	-393.34113	1014.32642	485.08734	-225.21442	970.82745	371.47592	-325.07486	801.61914	293.14154	-316.83591	739.94513	282.87833	-250.64592	802.62561	304.85867	-251.63727	742.29834	293.53766	-326.52692	481.57266	296.02643	-334.11917	447.81134	406.99661	-399.96854	377.63577	264.20966	-392.26279	335.17783	259.70712	-335.33798	383.21408	262.12851	-338.42099	339.42123	257.67233	-358.24088	92.82088	269.54852	-346.83365	98.11237	347.83804	-422.01425	66.62343	312.54648	-247.54010	30.68432	238.05220	-195.74821	55.83025	306.01303	-220.96259	36.01841	352.04382	-389.73056	1012.33899	557.75861	-200.35805	969.37311	612.28241	-291.59323	791.48651	708.24658	-284.75452	728.62213	709.18823	-219.38300	792.68011	686.01691	-222.45160	730.02094	691.41370	-304.70502	462.87982	688.75763	-299.46909	463.16168	578.74023	-363.69107	393.02579	716.85675	-360.44962	345.66742	722.92914	-303.74493	386.57281	709.59924	-309.75681	340.70212	715.82635	-336.73682	91.76562	697.77563	-317.26849	105.68743	619.19049	-400.45151	62.51099	656.60260	-198.12744	44.82883	622.42896	-176.10687	53.24369	661.36548	-219.47310	29.12226	728.69379
431	1.72000	-393.33496	1014.29523	485.06424	-225.21114	970.80878	371.46826	-325.06772	801.60596	293.11838	-316.86530	739.95251	282.88110	-250.69078	802.59412	304.85052	-251.64740	742.27484	293.53058	-326.53281	481.55496	296.01743	-334.15393	447.80945	406.98102	-399.96460	377.61407	264.20245	-392.33582	335.12912	259.76047	-335.37009	383.20801	262.13303	-338.40347	339.34595	257.65720	-358.29410	92.79253	269.56296	-346.84500	98.08272	347.82874	-422.02170	66.60254	312.54898	-247.56435	30.66591	238.03941	-195.72490	55.83658	305.99686	-220.96790	36.01042	352.04260	-389.73813	1012.32257	557.75098	-200.36534	969.35431	612.27161	-291.58316	791.47742	708.23962	-284.78323	728.59845	709.19531	-219.37569	792.70569	686.02051	-222.42430	730.02649	691.40100	-304.70789	462.85071	688.75983	-299.49158	463.13242	578.75110	-363.72064	393.00388	716.84882	-360.46271	345.64661	722.90417	-303.76523	386.54599	709.59576	-309.75586	340.68896	715.80182	-336.73572	91.75261	697.78320	-317.28079	105.66441	619.18524	-400.43100	62.48040	656.61090	-197.89963	45.07753	622.13739	-176.10425	53.23626	661.36090	-219.49336	29.09833	728.69464
432	1.72400	-393.32166	1014.28619	485.05338	-225.20108	970.78839	371.48837	-325.07510	801.58557	293.13147	-316.83310	739.93768	282.86301	-250.65570	802.57172	304.87503	-251.63333	742.25372	293.54990	-326.54385	481.54944	296.01917	-334.15167	447.80014	406.98727	-399.97012	377.60410	264.18793	-392.28113	335.13171	259.73349	-335.37451	383.18350	262.14313	-338.46176	339.34464	257.67929	-358.29456	92.77296	269.57544	-346.80927	98.06824	347.85229	-421.98569	66.56293	312.55722	-247.57195	30.63969	238.05272	-195.70876	55.87071	305.99487	-220.98019	35.96833	352.05063	-389.72626	1012.29382	557.72021	-200.36209	969.34717	612.28253	-291.55698	791.47284	708.25391	-284.73907	728.57520	709.21393	-219.37718	792.65833	686.03571	-222.44449	729.99121	691.40784	-304.69589	462.83536	688.76379	-299.49905	463.11316	578.76648	-363.70898	392.96698	716.85510	-360.48575	345.60226	722.89398	-303.73413	386.53040	709.58734	-309.74512	340.66299	715.80786	-336.70831	91.71676	697.79590	-317.28076	105.64706	619.18835	-400.43048	62.44151	656.62555	-197.90668	45.04694	622.14929	-176.12013	53.21080	661.37469	-219.47650	29.08379	728.69464
433	1.72800	-393.35880	1014.26709	485.06390	-225.18681	970.76282	371.49954	-325.09247	801.59845	293.12445	-316.83807	739.94135	282.87872	-250.65703	802.54822	304.86133	-251.64108	742.24847	293.56107	-326.54315	481.53333	296.01880	-334.13470	447.77164	407.00052	-399.96967	377.59396	264.19998	-392.21683	335.18713	259.67874	-335.37076	383.17880	262.14563	-337.74124	339.72729	257.59839	-358.28412	92.79135	269.58658	-346.76086	98.04152	347.85687	-421.97308	66.54593	312.62589	-247.57767	30.63344	238.05421	-195.91116	55.44241	306.11038	-220.94827	35.96986	352.06299	-389.74298	1012.29761	557.71271	-200.35037	969.31787	612.29633	-291.53482	791.44458	708.26068	-284.66327	728.57050	709.22229	-219.35033	792.64240	686.03674	-222.40340	729.98370	691.42188	-304.67767	462.81366	688.76196	-299.50867	463.11731	578.77759	-363.66879	392.93304	716.85675	-360.47232	345.55148	722.91266	-303.74277	386.47876	709.59888	-309.72092	340.62689	715.80750	-336.70792	91.67596	697.79749	-317.27090	105.64386	619.19281	-400.40186	62.40791	656.66791	-197.89371	45.03387	622.17841	-176.10017	53.19923	661.39838	-219.47742	29.05095	728.70911
434	1.73200	-393.30450	1014.24286	485.08005	-225.29109	970.84174	371.48813	-325.06067	801.59436	293.13013	-316.82977	739.92981	282.88959	-250.62973	802.55408	304.89630	-251.62425	742.23401	293.56891	-326.53201	481.52197	296.03226	-334.14209	447.75919	407.01901	-399.96112	377.59653	264.19855	-392.30795	335.14432	259.75568	-335.34592	383.18588	262.16821	-338.44965	339.31775	257.68277	-358.30450	92.76312	269.58969	-346.78104	98.00789	347.87524	-421.95859	66.52388	312.67322	-247.57645	30.60616	238.07664	-195.63826	55.66647	306.01080	-220.95453	35.94758	352.08240	-389.73709	1012.27570	557.70825	-200.37175	969.29718	612.32660	-291.52573	791.42340	708.28009	-284.69119	728.51501	709.24707	-219.35069	792.58362	686.07806	-222.45810	729.93042	691.44061	-304.68958	462.77734	688.77643	-299.48505	463.11807	578.79193	-363.68695	392.91672	716.89209	-360.43335	345.53345	722.96027	-303.72314	386.45676	709.61560	-309.73898	340.60327	715.83545	-336.68326	91.65343	697.82477	-317.26587	105.63912	619.21112	-400.42911	62.40712	656.70215	-197.90210	45.02655	622.20789	-176.09499	53.17889	661.42126	-219.45889	29.02528	728.72198
435	1.73600	-393.36179	1014.26086	485.06799	-225.18898	970.76276	371.54669	-325.06482	801.59875	293.14697	-316.82437	739.94092	282.90631	-250.63153	802.55890	304.91208	-251.63039	742.22583	293.58658	-326.52597	481.53964	296.04950	-334.14404	447.74084	407.00842	-399.97601	377.60654	264.21820	-392.32272	335.13522	259.76962	-335.32889	383.18881	262.17392	-337.93115	339.59930	257.58710	-358.27921	92.79522	269.60565	-346.81726	97.97762	347.88306	-421.97726	66.51134	312.70532	-247.55899	30.63340	238.09555	-195.66367	55.66198	306.02692	-220.96986	35.93940	352.09729	-389.74344	1012.28278	557.71161	-200.35075	969.32214	612.34198	-291.55429	791.41565	708.28137	-284.67636	728.50616	709.28302	-219.37726	792.59106	686.08942	-222.44878	729.91968	691.47180	-304.69522	462.76492	688.79065	-299.46976	463.13858	578.79352	-363.69583	392.90936	716.88013	-360.45328	345.50897	722.97278	-303.77548	386.44962	709.63818	-309.74951	340.57758	715.84473	-336.69196	91.65414	697.83380	-317.27448	105.63870	619.21173	-400.41974	62.42899	656.72290	-197.89372	45.04086	622.20679	-176.10963	53.17928	661.42645	-219.47624	29.01453	728.72882
436	1.74000	-393.36771	1014.25354	485.08463	-225.26741	970.87103	371.51697	-325.09067	801.59326	293.19040	-316.79770	739.94202	282.91501	-250.60754	802.58087	304.91980	-251.61917	742.25696	293.60040	-326.51978	481.53683	296.04791	-334.14401	447.72849	407.01996	-399.99442	377.64258	264.21869	-392.28464	335.15469	259.77466	-335.31604	383.20712	262.17307	-338.41891	339.35086	257.68567	-358.29077	92.79804	269.61575	-346.82959	97.97319	347.87955	-421.95609	66.52213	312.73392	-247.54419	30.66762	238.08911	-195.89619	55.44944	306.20306	-220.97769	35.94423	352.09619	-389.77029	1012.28015	557.73022	-200.35529	969.32098	612.36176	-291.57800	791.39545	708.28906	-284.76556	728.48907	709.27173	-219.38417	792.58832	686.11432	-222.44864	729.93396	691.47827	-304.69446	462.76855	688.78339	-299.47961	463.11685	578.83722	-363.68344	392.91763	716.89624	-360.47443	345.50714	722.95807	-303.75604	386.44406	709.65509	-309.76584	340.57916	715.86133	-336.71487	91.65204	697.84448	-317.00839	105.90094	619.19025	-400.40845	62.42031	656.74353	-198.07904	44.80360	622.47333	-176.12917	53.18168	661.43713	-219.49461	29.03639	728.73383
437	1.74400	-393.40250	1014.28418	485.07455	-225.17099	970.78796	371.56631	-325.08566	801.59583	293.19684	-316.83267	739.93506	282.94751	-250.60822	802.58398	304.90424	-251.58083	742.26697	293.61414	-326.50540	481.53885	296.07056	-334.13501	447.74600	407.02087	-399.97043	377.61612	264.25485	-392.37476	335.12567	259.85565	-335.31711	383.22668	262.17871	-337.90347	339.62488	257.58929	-358.26807	92.81867	269.61807	-346.82907	97.96621	347.87750	-421.95508	66.53285	312.75156	-247.52060	30.68054	238.10072	-195.58597	55.72232	306.01477	-220.97717	35.94841	352.09863	-389.77664	1012.29852	557.73938	-200.33580	969.32581	612.36432	-291.59253	791.38977	708.29803	-284.73087	728.48395	709.29529	-219.38029	792.57593	686.12244	-222.42996	729.95410	691.48895	-304.69910	462.76669	688.80841	-299.45044	463.15714	578.83289	-363.66843	392.92468	716.91199	-360.46246	345.52109	722.95740	-303.75534	386.45563	709.65570	-309.76556	340.56036	715.87598	-336.72250	91.64175	697.84253	-317.00403	105.91698	619.19659	-400.41510	62.41637	656.74988	-198.07021	44.81017	622.49536	-176.10893	53.20182	661.44189	-219.47006	29.03848	728.72687
438	1.74800	-393.39658	1014.28955	485.08713	-225.23770	970.89264	371.53333	-325.07950	801.58618	293.22101	-316.79782	739.91302	282.93964	-250.59457	802.61157	304.93756	-251.61108	742.27185	293.61359	-326.50070	481.54218	296.07947	-334.12119	447.75812	407.01825	-400.01813	377.64862	264.25491	-392.26910	335.20892	259.78442	-335.30823	383.23071	262.17990	-337.66418	339.78561	257.63303	-358.27631	92.81055	269.62424	-346.79028	97.98125	347.90027	-421.92239	66.51195	312.75259	-247.50922	30.70076	238.10910	-195.59995	55.72827	306.04156	-220.96442	35.95742	352.10059	-389.80225	1012.29004	557.75403	-200.30817	969.35522	612.36414	-291.54370	791.39825	708.29840	-284.70383	728.49194	709.29938	-219.36272	792.60120	686.12830	-222.41649	729.95886	691.50958	-304.68787	462.78592	688.81348	-299.43689	463.14767	578.83539	-363.64651	392.94006	716.91846	-360.44073	345.50391	722.95154	-303.73450	386.47348	709.66223	-309.73712	340.59235	715.87286	-336.67212	91.65602	697.85455	-317.00632	105.92666	619.19971	-400.39838	62.44086	656.72821	-198.08237	44.81572	622.50305	-176.09444	53.20577	661.43457	-219.45554	29.05375	728.74469
